<svg width="380" height="56" viewBox="0 0 380 56" fill="none" xmlns="http://www.w3.org/2000/svg">
<rect x="0.5" y="0.5" width="55" height="55" rx="9.5" fill="#1F1F1F"/>
<rect x="0.5" y="0.5" width="55" height="55" rx="9.5" stroke="#333333"/>
<path d="M29.2088 18.2601L28.5403 18.656C27.8059 19.0909 27.4388 19.3084 27.0343 19.359C26.6298 19.4097 26.2338 19.2878 25.4418 19.0441L24.7207 18.8222C21.9336 17.9646 20.54 17.5358 19.7023 18.3024C18.8647 19.0691 19.1376 20.5236 19.6836 23.4325L19.8248 24.1851C19.98 25.0117 20.0575 25.425 19.9655 25.8288C19.8735 26.2326 19.6223 26.5811 19.12 27.2781L18.6626 27.9127C16.8947 30.3657 16.0108 31.5921 16.442 32.6089C16.8733 33.6256 18.3341 33.7594 21.2557 34.0268L22.0116 34.096C22.8418 34.1719 23.2569 34.2099 23.6045 34.4088C23.9522 34.6077 24.1929 34.945 24.6744 35.6195L25.1128 36.2336C26.8074 38.6072 27.6546 39.794 28.7588 39.6557C29.863 39.5174 30.4929 38.1456 31.7526 35.402L32.0785 34.6922C32.2614 34.2937 32.3976 33.9971 32.528 33.7647L37.8819 39.1186C38.2236 39.4603 38.7777 39.4603 39.1194 39.1186C39.4611 38.7769 39.4611 38.2229 39.1194 37.8812L33.949 32.7108C34.0913 32.659 34.2502 32.6034 34.4291 32.5407L35.1574 32.2856C37.9726 31.2997 39.3801 30.8067 39.6313 29.7045C39.8825 28.6023 38.811 27.6207 36.6679 25.6577L36.1135 25.1498C35.5045 24.5919 35.2 24.313 35.042 23.9405C34.884 23.5681 34.8905 23.1443 34.9033 22.2966L34.9151 21.5248C34.9604 18.5419 34.9831 17.0504 34.0341 16.5074C33.0852 15.9645 31.7931 16.7297 29.2088 18.2601Z" fill="#CE7D63"/>
<path d="M66.5449 34.5V33.1465L73.207 23.2939H66.668V21.7031H75.668V23.1006L68.9971 32.918H75.9316V34.5H66.5449ZM77.9268 34.5V21.7031H86.0391V23.2939H79.9043V27.1172H85.2305V28.6904H79.9043V32.918H86.127V34.5H77.9268ZM88.1045 34.5V21.7031H90.1963L95.5225 30.3779C95.6338 30.5537 95.7334 30.7295 95.8213 30.9053C95.915 31.0752 95.9971 31.2393 96.0674 31.3975H96.1289C96.123 31.2158 96.1172 31.0225 96.1113 30.8174C96.1113 30.6064 96.1113 30.4102 96.1113 30.2285V21.7031H97.957V34.5H95.8477L90.5303 25.8428C90.4189 25.667 90.3164 25.4912 90.2227 25.3154C90.1348 25.1396 90.0557 24.9727 89.9854 24.8145H89.9238C89.9297 24.9961 89.9326 25.1953 89.9326 25.4121C89.9385 25.623 89.9414 25.8223 89.9414 26.0098V34.5H88.1045ZM100.813 34.5V21.7031H102.809V34.5H100.813ZM104.241 23.2939V21.7031H114.173V23.2939H110.2V34.5H108.205V23.2939H104.241ZM115.79 34.5V21.7031H117.776V27.0996H123.727V21.7031H125.713V34.5H123.727V28.6992H117.776V34.5H115.79ZM132.841 34.5V21.7031H140.786V23.2939H134.827V27.4072H139.986V28.9893H134.827V34.5H132.841ZM142.685 34.5V21.7031H144.68V34.5H142.685ZM146.112 23.2939V21.7031H156.044V23.2939H152.071V34.5H150.076V23.2939H146.112ZM157.661 34.5V21.7031H159.753L165.079 30.3779C165.19 30.5537 165.29 30.7295 165.378 30.9053C165.472 31.0752 165.554 31.2393 165.624 31.3975H165.686C165.68 31.2158 165.674 31.0225 165.668 30.8174C165.668 30.6064 165.668 30.4102 165.668 30.2285V21.7031H167.514V34.5H165.404L160.087 25.8428C159.976 25.667 159.873 25.4912 159.779 25.3154C159.691 25.1396 159.612 24.9727 159.542 24.8145H159.48C159.486 24.9961 159.489 25.1953 159.489 25.4121C159.495 25.623 159.498 25.8223 159.498 26.0098V34.5H157.661ZM170.353 34.5V21.7031H178.465V23.2939H172.33V27.1172H177.656V28.6904H172.33V32.918H178.553V34.5H170.353ZM179.889 30.9668V30.7734H181.884V30.9492C181.884 31.6816 182.124 32.2324 182.604 32.6016C183.085 32.9648 183.753 33.1465 184.608 33.1465C185.464 33.1465 186.12 32.9648 186.577 32.6016C187.034 32.2324 187.263 31.752 187.263 31.1602C187.263 30.5977 187.043 30.1523 186.604 29.8242C186.164 29.4961 185.3 29.1475 184.011 28.7783C182.651 28.3857 181.664 27.9111 181.049 27.3545C180.434 26.792 180.126 26.0039 180.126 24.9902C180.126 23.9531 180.519 23.1035 181.304 22.4414C182.089 21.7793 183.164 21.4482 184.529 21.4482C185.889 21.4482 186.973 21.7939 187.781 22.4854C188.596 23.1709 189.003 24.0674 189.003 25.1748V25.3418H187.017V25.1924C187.017 24.5479 186.809 24.0322 186.393 23.6455C185.977 23.2588 185.355 23.0654 184.529 23.0654C183.703 23.0654 183.094 23.2295 182.701 23.5576C182.314 23.8857 182.121 24.3311 182.121 24.8936C182.121 25.415 182.323 25.8252 182.728 26.124C183.138 26.417 183.996 26.748 185.303 27.1172C186.639 27.498 187.629 27.9844 188.273 28.5762C188.924 29.168 189.249 30.0059 189.249 31.0898C189.249 32.1914 188.83 33.0791 187.992 33.7529C187.154 34.4209 186.026 34.7549 184.608 34.7549C183.196 34.7549 182.057 34.4238 181.189 33.7617C180.322 33.0938 179.889 32.1621 179.889 30.9668ZM190.646 30.9668V30.7734H192.642V30.9492C192.642 31.6816 192.882 32.2324 193.362 32.6016C193.843 32.9648 194.511 33.1465 195.366 33.1465C196.222 33.1465 196.878 32.9648 197.335 32.6016C197.792 32.2324 198.021 31.752 198.021 31.1602C198.021 30.5977 197.801 30.1523 197.361 29.8242C196.922 29.4961 196.058 29.1475 194.769 28.7783C193.409 28.3857 192.422 27.9111 191.807 27.3545C191.191 26.792 190.884 26.0039 190.884 24.9902C190.884 23.9531 191.276 23.1035 192.062 22.4414C192.847 21.7793 193.922 21.4482 195.287 21.4482C196.646 21.4482 197.73 21.7939 198.539 22.4854C199.354 23.1709 199.761 24.0674 199.761 25.1748V25.3418H197.774V25.1924C197.774 24.5479 197.566 24.0322 197.15 23.6455C196.734 23.2588 196.113 23.0654 195.287 23.0654C194.461 23.0654 193.852 23.2295 193.459 23.5576C193.072 23.8857 192.879 24.3311 192.879 24.8936C192.879 25.415 193.081 25.8252 193.485 26.124C193.896 26.417 194.754 26.748 196.061 27.1172C197.396 27.498 198.387 27.9844 199.031 28.5762C199.682 29.168 200.007 30.0059 200.007 31.0898C200.007 32.1914 199.588 33.0791 198.75 33.7529C197.912 34.4209 196.784 34.7549 195.366 34.7549C193.954 34.7549 192.814 34.4238 191.947 33.7617C191.08 33.0938 190.646 32.1621 190.646 30.9668ZM204.894 34.5L209.666 21.6328H211.635L216.434 34.5H214.342L210.94 24.9902C210.87 24.791 210.809 24.6006 210.756 24.4189C210.709 24.2373 210.665 24.0527 210.624 23.8652H210.545C210.51 24.0527 210.466 24.2373 210.413 24.4189C210.366 24.6006 210.308 24.791 210.237 24.9902L206.818 34.5H204.894ZM207.161 31.3184L207.688 29.7627H213.551L214.078 31.3184H207.161ZM217.778 34.5V21.7031H222.182C223.6 21.7031 224.687 22.0605 225.442 22.7754C226.198 23.4844 226.576 24.4482 226.576 25.667C226.576 26.8857 226.198 27.8555 225.442 28.5762C224.687 29.2969 223.6 29.6572 222.182 29.6572H219.765V34.5H217.778ZM219.765 28.0928H222.085C223.017 28.0928 223.667 27.8643 224.036 27.4072C224.405 26.9443 224.59 26.3643 224.59 25.667C224.59 24.9756 224.405 24.4043 224.036 23.9531C223.667 23.502 223.017 23.2764 222.085 23.2764H219.765V28.0928ZM228.431 34.5V21.7031H232.834C234.252 21.7031 235.339 22.0605 236.095 22.7754C236.851 23.4844 237.229 24.4482 237.229 25.667C237.229 26.8857 236.851 27.8555 236.095 28.5762C235.339 29.2969 234.252 29.6572 232.834 29.6572H230.417V34.5H228.431ZM230.417 28.0928H232.737C233.669 28.0928 234.319 27.8643 234.688 27.4072C235.058 26.9443 235.242 26.3643 235.242 25.667C235.242 24.9756 235.058 24.4043 234.688 23.9531C234.319 23.502 233.669 23.2764 232.737 23.2764H230.417V28.0928Z" fill="#F9EFEC"/>
<rect x="264.5" y="8.5" width="39" height="39" rx="19.5" fill="#1F1F1F"/>
<rect x="264.5" y="8.5" width="39" height="39" rx="19.5" stroke="#333333"/>
<path fill-rule="evenodd" clip-rule="evenodd" d="M280.875 21.125L290.25 21.125C290.416 21.125 290.575 21.1908 290.692 21.3081C290.809 21.4253 290.875 21.5842 290.875 21.75V31.125C290.875 31.4702 290.595 31.75 290.25 31.75C289.905 31.75 289.625 31.4702 289.625 31.125V23.2589L278.192 34.6919C277.948 34.936 277.552 34.936 277.308 34.6919C277.064 34.4479 277.064 34.0521 277.308 33.8081L288.741 22.375L280.875 22.375C280.53 22.375 280.25 22.0952 280.25 21.75C280.25 21.4048 280.53 21.125 280.875 21.125Z" fill="#E7BEB1"/>
<path d="M313.078 34V22.625H315.891C316.38 22.625 316.841 22.6823 317.273 22.7969C317.706 22.9062 318.099 23.0599 318.453 23.2578C318.839 23.4609 319.18 23.7161 319.477 24.0234C319.779 24.3307 320.031 24.6745 320.234 25.0547C320.443 25.4505 320.604 25.8854 320.719 26.3594C320.833 26.8333 320.891 27.3385 320.891 27.875V28.7656C320.891 29.2812 320.836 29.7708 320.727 30.2344C320.622 30.6927 320.471 31.112 320.273 31.4922C320.081 31.862 319.846 32.1979 319.57 32.5C319.299 32.8021 318.997 33.0599 318.664 33.2734C318.289 33.5078 317.872 33.6875 317.414 33.8125C316.961 33.9375 316.474 34 315.953 34H313.078ZM314.977 24.1562V32.4766H315.953C316.286 32.4766 316.591 32.4375 316.867 32.3594C317.148 32.276 317.401 32.1589 317.625 32.0078C317.854 31.8516 318.057 31.6562 318.234 31.4219C318.417 31.1823 318.565 30.9089 318.68 30.6016C318.779 30.3411 318.854 30.0573 318.906 29.75C318.958 29.4427 318.984 29.1146 318.984 28.7656V27.8594C318.984 27.5156 318.958 27.1901 318.906 26.8828C318.854 26.5755 318.779 26.2917 318.68 26.0312C318.555 25.7135 318.388 25.4271 318.18 25.1719C317.971 24.9115 317.724 24.7005 317.438 24.5391C317.229 24.4193 316.995 24.3281 316.734 24.2656C316.474 24.1979 316.193 24.1615 315.891 24.1562H314.977ZM329.461 28.8984H324.758V32.4531H330.25V34H322.875V22.625H330.211V24.1797H324.758V27.3828H329.461V28.8984ZM340.453 24.1797H336.945V34H335.078V24.1797H331.594V22.625H340.453V24.1797ZM347.516 31.3828H343.945L343.172 34H341.219L344.922 22.625H346.586L350.227 34H348.281L347.516 31.3828ZM344.422 29.7734H347.055L345.75 25.2734L344.422 29.7734ZM351.883 22.625H358.586V24.1797H356.156V32.4531H358.586V34H351.883V32.4531H354.258V24.1797H351.883V22.625ZM363.258 32.4531H368.688V34H361.375V22.625H363.258V32.4531ZM376.75 31.0703C376.75 30.8047 376.695 30.5703 376.586 30.3672C376.477 30.1641 376.323 29.9818 376.125 29.8203C375.917 29.6693 375.669 29.5339 375.383 29.4141C375.102 29.2891 374.786 29.1771 374.438 29.0781C373.901 28.9271 373.406 28.7422 372.953 28.5234C372.505 28.2995 372.122 28.0495 371.805 27.7734C371.487 27.4922 371.237 27.1745 371.055 26.8203C370.878 26.4609 370.789 26.0573 370.789 25.6094C370.789 25.125 370.893 24.6901 371.102 24.3047C371.31 23.9141 371.591 23.5807 371.945 23.3047C372.299 23.0339 372.711 22.8281 373.18 22.6875C373.654 22.5417 374.151 22.4688 374.672 22.4688C375.224 22.4688 375.737 22.5547 376.211 22.7266C376.69 22.8932 377.107 23.1276 377.461 23.4297C377.815 23.737 378.094 24.1042 378.297 24.5312C378.505 24.9531 378.609 25.4219 378.609 25.9375H376.75C376.724 25.651 376.661 25.3906 376.562 25.1562C376.469 24.9167 376.336 24.7109 376.164 24.5391C375.987 24.3724 375.771 24.2422 375.516 24.1484C375.266 24.0495 374.977 24 374.648 24C374.362 24 374.096 24.0391 373.852 24.1172C373.612 24.1901 373.404 24.2943 373.227 24.4297C373.049 24.5703 372.911 24.7396 372.812 24.9375C372.714 25.1354 372.664 25.3568 372.664 25.6016C372.669 25.862 372.737 26.0911 372.867 26.2891C372.997 26.4818 373.172 26.651 373.391 26.7969C373.615 26.9427 373.87 27.0703 374.156 27.1797C374.448 27.2891 374.753 27.3906 375.07 27.4844C375.471 27.599 375.862 27.7422 376.242 27.9141C376.628 28.0807 376.982 28.2839 377.305 28.5234C377.706 28.8255 378.026 29.1875 378.266 29.6094C378.51 30.026 378.633 30.5078 378.633 31.0547C378.633 31.5599 378.526 32.0052 378.312 32.3906C378.104 32.776 377.823 33.0964 377.469 33.3516C377.109 33.6172 376.693 33.8177 376.219 33.9531C375.745 34.0833 375.245 34.1484 374.719 34.1484C374.161 34.1484 373.612 34.0625 373.07 33.8906C372.529 33.7135 372.057 33.4583 371.656 33.125C371.286 32.8125 370.992 32.4453 370.773 32.0234C370.56 31.6016 370.451 31.1172 370.445 30.5703H372.32C372.346 30.9193 372.419 31.224 372.539 31.4844C372.664 31.7396 372.833 31.9505 373.047 32.1172C373.255 32.2891 373.5 32.4167 373.781 32.5C374.068 32.5833 374.38 32.625 374.719 32.625C375.005 32.625 375.271 32.5911 375.516 32.5234C375.766 32.4557 375.982 32.3542 376.164 32.2188C376.341 32.0885 376.482 31.9271 376.586 31.7344C376.695 31.5417 376.75 31.3203 376.75 31.0703Z" fill="#B3B3B2"/>
</svg>
