<svg width="380" height="56" viewBox="0 0 380 56" fill="none" xmlns="http://www.w3.org/2000/svg">
<rect x="0.5" y="0.5" width="55" height="55" rx="9.5" fill="#1F1F1F"/>
<rect x="0.5" y="0.5" width="55" height="55" rx="9.5" stroke="#333333"/>
<path fill-rule="evenodd" clip-rule="evenodd" d="M36.7497 25.154C36.7887 29.9863 32.7617 34.4557 27.9294 34.4167C23.0971 34.3777 19.2893 29.8451 19.2503 25.0128C19.2113 20.1804 23.0971 16.2947 27.9294 16.3337C32.7617 16.3727 36.7107 20.3217 36.7497 25.154ZM28.5904 20.1251C28.1072 20.1212 27.7123 20.5097 27.7084 20.993C27.7045 21.4762 28.093 21.8711 28.5763 21.875C30.0161 21.8866 31.1967 23.0673 31.2084 24.5071C31.2123 24.9903 31.6072 25.3789 32.0904 25.375C32.5736 25.3711 32.9622 24.9762 32.9583 24.493C32.939 22.0977 30.9856 20.1444 28.5904 20.1251Z" fill="#CE7D63"/>
<path d="M30.5274 35.2501C30.9149 36.4896 30.1117 37.7372 28.8743 37.9886V39.6665C28.8743 40.1498 28.4825 40.5415 27.9993 40.5415C27.516 40.5415 27.1243 40.1498 27.1243 39.6665V37.9886C25.8868 37.7372 25.0836 36.4896 25.4712 35.2501L25.4792 35.2253C26.2543 35.4512 27.0709 35.5763 27.9193 35.5831C28.8187 35.5904 29.6901 35.4635 30.5186 35.2228C30.5217 35.2319 30.5245 35.2411 30.5274 35.2501Z" fill="#CE7D63"/>
<path d="M65.9209 34.5L70.6934 21.6328H72.6621L77.4609 34.5H75.3691L71.9678 24.9902C71.8975 24.791 71.8359 24.6006 71.7832 24.4189C71.7363 24.2373 71.6924 24.0527 71.6514 23.8652H71.5723C71.5371 24.0527 71.4932 24.2373 71.4404 24.4189C71.3936 24.6006 71.335 24.791 71.2646 24.9902L67.8457 34.5H65.9209ZM68.1885 31.3184L68.7158 29.7627H74.5781L75.1055 31.3184H68.1885ZM77.9795 29.8154V28.1016H82.9365V29.8154H77.9795ZM83.4463 34.5L88.2188 21.6328H90.1875L94.9863 34.5H92.8945L89.4932 24.9902C89.4229 24.791 89.3613 24.6006 89.3086 24.4189C89.2617 24.2373 89.2178 24.0527 89.1768 23.8652H89.0977C89.0625 24.0527 89.0186 24.2373 88.9658 24.4189C88.9189 24.6006 88.8604 24.791 88.79 24.9902L85.3711 34.5H83.4463ZM85.7139 31.3184L86.2412 29.7627H92.1035L92.6309 31.3184H85.7139ZM96.041 30.167V21.7031H98.0273V30.2285C98.0273 31.2422 98.2764 31.9805 98.7744 32.4434C99.2725 32.9062 99.9287 33.1377 100.743 33.1377C101.558 33.1377 102.214 32.9062 102.712 32.4434C103.21 31.9805 103.459 31.2422 103.459 30.2285V21.7031H105.428V30.167C105.428 31.7197 104.977 32.874 104.074 33.6299C103.178 34.3799 102.064 34.7549 100.734 34.7549C99.4102 34.7549 98.2969 34.3799 97.3945 33.6299C96.4922 32.874 96.041 31.7197 96.041 30.167ZM108.126 34.5V21.7031H112.415C113.804 21.7031 114.879 22.0488 115.641 22.7402C116.402 23.4316 116.783 24.3691 116.783 25.5527C116.783 26.7305 116.399 27.6768 115.632 28.3916C114.87 29.1006 113.798 29.4551 112.415 29.4551H110.112V34.5H108.126ZM110.112 27.9082H112.362C113.265 27.9082 113.895 27.6855 114.252 27.2402C114.609 26.7949 114.788 26.2354 114.788 25.5615C114.788 24.8877 114.609 24.3369 114.252 23.9092C113.895 23.4814 113.265 23.2646 112.362 23.2588H110.112V27.9082ZM115.201 34.5L112.143 28.6025L114.155 28.3828L117.425 34.5H115.201ZM117.618 34.5L122.391 21.6328H124.359L129.158 34.5H127.066L123.665 24.9902C123.595 24.791 123.533 24.6006 123.48 24.4189C123.434 24.2373 123.39 24.0527 123.349 23.8652H123.27C123.234 24.0527 123.19 24.2373 123.138 24.4189C123.091 24.6006 123.032 24.791 122.962 24.9902L119.543 34.5H117.618ZM119.886 31.3184L120.413 29.7627H126.275L126.803 31.3184H119.886ZM134.81 34.5V21.7031H142.922V23.2939H136.787V27.1172H142.113V28.6904H136.787V32.918H143.01V34.5H134.81ZM144.513 28.4971V27.7061C144.513 25.6904 145.017 24.1436 146.024 23.0654C147.038 21.9873 148.327 21.4482 149.892 21.4482C151.427 21.4482 152.631 21.8613 153.504 22.6875C154.383 23.5137 154.822 24.5449 154.822 25.7812V25.9395H152.827V25.7637C152.827 24.9551 152.584 24.3047 152.098 23.8125C151.611 23.3145 150.873 23.0654 149.883 23.0654C148.898 23.0654 148.096 23.4316 147.475 24.1641C146.854 24.8965 146.543 26.0391 146.543 27.5918V28.6113C146.543 30.0586 146.851 31.1748 147.466 31.96C148.087 32.7451 148.898 33.1377 149.9 33.1377C150.832 33.1377 151.535 32.8857 152.01 32.3818C152.484 31.8721 152.754 31.2217 152.818 30.4307L152.827 30.2637H154.822L154.813 30.4395C154.726 31.6582 154.266 32.6836 153.434 33.5156C152.607 34.3418 151.427 34.7549 149.892 34.7549C148.315 34.7549 147.023 34.2129 146.016 33.1289C145.014 32.0449 144.513 30.501 144.513 28.4971ZM156.413 28.4971V27.7061C156.413 25.6904 156.92 24.1436 157.934 23.0654C158.947 21.9873 160.254 21.4482 161.854 21.4482C163.447 21.4482 164.754 21.9873 165.773 23.0654C166.793 24.1436 167.303 25.6904 167.303 27.7061V28.4971C167.303 30.5127 166.793 32.0596 165.773 33.1377C164.754 34.2158 163.447 34.7549 161.854 34.7549C160.254 34.7549 158.947 34.2158 157.934 33.1377C156.92 32.0596 156.413 30.5127 156.413 28.4971ZM158.443 28.6025C158.443 30.0674 158.754 31.1895 159.375 31.9688C159.996 32.748 160.822 33.1377 161.854 33.1377C162.885 33.1377 163.711 32.748 164.332 31.9688C164.959 31.1895 165.272 30.0674 165.272 28.6025V27.6006C165.272 26.1357 164.959 25.0137 164.332 24.2344C163.711 23.4551 162.885 23.0654 161.854 23.0654C160.822 23.0654 159.996 23.4551 159.375 24.2344C158.754 25.0137 158.443 26.1357 158.443 27.6006V28.6025ZM169.667 34.5V21.7031H172.242L175.767 30.9053C175.837 31.0869 175.901 31.2715 175.96 31.459C176.019 31.6465 176.068 31.8369 176.109 32.0303H176.171C176.218 31.8369 176.271 31.6465 176.329 31.459C176.388 31.2715 176.452 31.0869 176.522 30.9053L180.047 21.7031H182.648V34.5H180.697V25.5879C180.697 25.4062 180.7 25.2012 180.706 24.9727C180.712 24.7441 180.727 24.5391 180.75 24.3574H180.68C180.645 24.5391 180.595 24.7441 180.53 24.9727C180.466 25.2012 180.398 25.4062 180.328 25.5879L176.918 34.5H175.222L171.82 25.5879C171.75 25.4062 171.68 25.2012 171.609 24.9727C171.545 24.7383 171.495 24.5332 171.46 24.3574H171.398C171.416 24.5273 171.428 24.7295 171.434 24.9639C171.445 25.1982 171.451 25.4062 171.451 25.5879V34.5H169.667ZM185.47 34.5V21.7031H188.045L191.569 30.9053C191.64 31.0869 191.704 31.2715 191.763 31.459C191.821 31.6465 191.871 31.8369 191.912 32.0303H191.974C192.021 31.8369 192.073 31.6465 192.132 31.459C192.19 31.2715 192.255 31.0869 192.325 30.9053L195.85 21.7031H198.451V34.5H196.5V25.5879C196.5 25.4062 196.503 25.2012 196.509 24.9727C196.515 24.7441 196.529 24.5391 196.553 24.3574H196.482C196.447 24.5391 196.397 24.7441 196.333 24.9727C196.269 25.2012 196.201 25.4062 196.131 25.5879L192.721 34.5H191.024L187.623 25.5879C187.553 25.4062 187.482 25.2012 187.412 24.9727C187.348 24.7383 187.298 24.5332 187.263 24.3574H187.201C187.219 24.5273 187.23 24.7295 187.236 24.9639C187.248 25.1982 187.254 25.4062 187.254 25.5879V34.5H185.47ZM201.272 34.5V21.7031H209.385V23.2939H203.25V27.1172H208.576V28.6904H203.25V32.918H209.473V34.5H201.272ZM211.45 34.5V21.7031H215.739C217.128 21.7031 218.203 22.0488 218.965 22.7402C219.727 23.4316 220.107 24.3691 220.107 25.5527C220.107 26.7305 219.724 27.6768 218.956 28.3916C218.194 29.1006 217.122 29.4551 215.739 29.4551H213.437V34.5H211.45ZM213.437 27.9082H215.687C216.589 27.9082 217.219 27.6855 217.576 27.2402C217.934 26.7949 218.112 26.2354 218.112 25.5615C218.112 24.8877 217.934 24.3369 217.576 23.9092C217.219 23.4814 216.589 23.2646 215.687 23.2588H213.437V27.9082ZM218.525 34.5L215.467 28.6025L217.479 28.3828L220.749 34.5H218.525ZM221.962 28.4971V27.7061C221.962 25.6904 222.466 24.1436 223.474 23.0654C224.487 21.9873 225.776 21.4482 227.341 21.4482C228.876 21.4482 230.08 21.8613 230.953 22.6875C231.832 23.5137 232.271 24.5449 232.271 25.7812V25.9395H230.276V25.7637C230.276 24.9551 230.033 24.3047 229.547 23.8125C229.061 23.3145 228.322 23.0654 227.332 23.0654C226.348 23.0654 225.545 23.4316 224.924 24.1641C224.303 24.8965 223.992 26.0391 223.992 27.5918V28.6113C223.992 30.0586 224.3 31.1748 224.915 31.96C225.536 32.7451 226.348 33.1377 227.35 33.1377C228.281 33.1377 228.984 32.8857 229.459 32.3818C229.934 31.8721 230.203 31.2217 230.268 30.4307L230.276 30.2637H232.271L232.263 30.4395C232.175 31.6582 231.715 32.6836 230.883 33.5156C230.057 34.3418 228.876 34.7549 227.341 34.7549C225.765 34.7549 224.473 34.2129 223.465 33.1289C222.463 32.0449 221.962 30.501 221.962 28.4971ZM234.337 34.5V21.7031H242.449V23.2939H236.314V27.1172H241.641V28.6904H236.314V32.918H242.537V34.5H234.337Z" fill="#F9EFEC"/>
<rect x="264.5" y="8.5" width="39" height="39" rx="19.5" fill="#1F1F1F"/>
<rect x="264.5" y="8.5" width="39" height="39" rx="19.5" stroke="#333333"/>
<path fill-rule="evenodd" clip-rule="evenodd" d="M280.875 21.125L290.25 21.125C290.416 21.125 290.575 21.1908 290.692 21.3081C290.809 21.4253 290.875 21.5842 290.875 21.75V31.125C290.875 31.4702 290.595 31.75 290.25 31.75C289.905 31.75 289.625 31.4702 289.625 31.125V23.2589L278.192 34.6919C277.948 34.936 277.552 34.936 277.308 34.6919C277.064 34.4479 277.064 34.0521 277.308 33.8081L288.741 22.375L280.875 22.375C280.53 22.375 280.25 22.0952 280.25 21.75C280.25 21.4048 280.53 21.125 280.875 21.125Z" fill="#E7BEB1"/>
<path d="M313.078 34V22.625H315.891C316.38 22.625 316.841 22.6823 317.273 22.7969C317.706 22.9062 318.099 23.0599 318.453 23.2578C318.839 23.4609 319.18 23.7161 319.477 24.0234C319.779 24.3307 320.031 24.6745 320.234 25.0547C320.443 25.4505 320.604 25.8854 320.719 26.3594C320.833 26.8333 320.891 27.3385 320.891 27.875V28.7656C320.891 29.2812 320.836 29.7708 320.727 30.2344C320.622 30.6927 320.471 31.112 320.273 31.4922C320.081 31.862 319.846 32.1979 319.57 32.5C319.299 32.8021 318.997 33.0599 318.664 33.2734C318.289 33.5078 317.872 33.6875 317.414 33.8125C316.961 33.9375 316.474 34 315.953 34H313.078ZM314.977 24.1562V32.4766H315.953C316.286 32.4766 316.591 32.4375 316.867 32.3594C317.148 32.276 317.401 32.1589 317.625 32.0078C317.854 31.8516 318.057 31.6562 318.234 31.4219C318.417 31.1823 318.565 30.9089 318.68 30.6016C318.779 30.3411 318.854 30.0573 318.906 29.75C318.958 29.4427 318.984 29.1146 318.984 28.7656V27.8594C318.984 27.5156 318.958 27.1901 318.906 26.8828C318.854 26.5755 318.779 26.2917 318.68 26.0312C318.555 25.7135 318.388 25.4271 318.18 25.1719C317.971 24.9115 317.724 24.7005 317.438 24.5391C317.229 24.4193 316.995 24.3281 316.734 24.2656C316.474 24.1979 316.193 24.1615 315.891 24.1562H314.977ZM329.461 28.8984H324.758V32.4531H330.25V34H322.875V22.625H330.211V24.1797H324.758V27.3828H329.461V28.8984ZM340.453 24.1797H336.945V34H335.078V24.1797H331.594V22.625H340.453V24.1797ZM347.516 31.3828H343.945L343.172 34H341.219L344.922 22.625H346.586L350.227 34H348.281L347.516 31.3828ZM344.422 29.7734H347.055L345.75 25.2734L344.422 29.7734ZM351.883 22.625H358.586V24.1797H356.156V32.4531H358.586V34H351.883V32.4531H354.258V24.1797H351.883V22.625ZM363.258 32.4531H368.688V34H361.375V22.625H363.258V32.4531ZM376.75 31.0703C376.75 30.8047 376.695 30.5703 376.586 30.3672C376.477 30.1641 376.323 29.9818 376.125 29.8203C375.917 29.6693 375.669 29.5339 375.383 29.4141C375.102 29.2891 374.786 29.1771 374.438 29.0781C373.901 28.9271 373.406 28.7422 372.953 28.5234C372.505 28.2995 372.122 28.0495 371.805 27.7734C371.487 27.4922 371.237 27.1745 371.055 26.8203C370.878 26.4609 370.789 26.0573 370.789 25.6094C370.789 25.125 370.893 24.6901 371.102 24.3047C371.31 23.9141 371.591 23.5807 371.945 23.3047C372.299 23.0339 372.711 22.8281 373.18 22.6875C373.654 22.5417 374.151 22.4688 374.672 22.4688C375.224 22.4688 375.737 22.5547 376.211 22.7266C376.69 22.8932 377.107 23.1276 377.461 23.4297C377.815 23.737 378.094 24.1042 378.297 24.5312C378.505 24.9531 378.609 25.4219 378.609 25.9375H376.75C376.724 25.651 376.661 25.3906 376.562 25.1562C376.469 24.9167 376.336 24.7109 376.164 24.5391C375.987 24.3724 375.771 24.2422 375.516 24.1484C375.266 24.0495 374.977 24 374.648 24C374.362 24 374.096 24.0391 373.852 24.1172C373.612 24.1901 373.404 24.2943 373.227 24.4297C373.049 24.5703 372.911 24.7396 372.812 24.9375C372.714 25.1354 372.664 25.3568 372.664 25.6016C372.669 25.862 372.737 26.0911 372.867 26.2891C372.997 26.4818 373.172 26.651 373.391 26.7969C373.615 26.9427 373.87 27.0703 374.156 27.1797C374.448 27.2891 374.753 27.3906 375.07 27.4844C375.471 27.599 375.862 27.7422 376.242 27.9141C376.628 28.0807 376.982 28.2839 377.305 28.5234C377.706 28.8255 378.026 29.1875 378.266 29.6094C378.51 30.026 378.633 30.5078 378.633 31.0547C378.633 31.5599 378.526 32.0052 378.312 32.3906C378.104 32.776 377.823 33.0964 377.469 33.3516C377.109 33.6172 376.693 33.8177 376.219 33.9531C375.745 34.0833 375.245 34.1484 374.719 34.1484C374.161 34.1484 373.612 34.0625 373.07 33.8906C372.529 33.7135 372.057 33.4583 371.656 33.125C371.286 32.8125 370.992 32.4453 370.773 32.0234C370.56 31.6016 370.451 31.1172 370.445 30.5703H372.32C372.346 30.9193 372.419 31.224 372.539 31.4844C372.664 31.7396 372.833 31.9505 373.047 32.1172C373.255 32.2891 373.5 32.4167 373.781 32.5C374.068 32.5833 374.38 32.625 374.719 32.625C375.005 32.625 375.271 32.5911 375.516 32.5234C375.766 32.4557 375.982 32.3542 376.164 32.2188C376.341 32.0885 376.482 31.9271 376.586 31.7344C376.695 31.5417 376.75 31.3203 376.75 31.0703Z" fill="#B3B3B2"/>
</svg>
